<?xml version="1.0" standalone="no"?>
<!DOCTYPE svg PUBLIC "-//W3C//DTD SVG 20010904//EN"
 "http://www.w3.org/TR/2001/REC-SVG-20010904/DTD/svg10.dtd">
<svg version="1.0" xmlns="http://www.w3.org/2000/svg"
 width="200.000000pt" height="197.000000pt" viewBox="0 0 200.000000 197.000000"
 preserveAspectRatio="xMidYMid meet">
<metadata>
Created by potrace 1.16, written by Peter Selinger 2001-2019
</metadata>
<g transform="translate(0.000000,197.000000) scale(0.100000,-0.100000)"
fill="#000000" stroke="none">
<path d="M294 1892 c-6 -4 -14 -58 -18 -127 -20 -362 -97 -809 -152 -891 -35
-51 -29 -81 24 -121 31 -24 54 -33 81 -33 33 0 52 14 196 141 l159 141 18 -41
c24 -56 69 -84 128 -76 101 12 160 86 185 229 8 49 16 90 18 91 1 1 12 7 24
14 22 11 22 10 -4 -46 -15 -33 -29 -83 -31 -115 -4 -52 -2 -57 22 -73 58 -38
162 7 217 93 26 41 29 43 23 17 -4 -16 -30 -55 -58 -85 -139 -152 -279 -344
-335 -460 -31 -65 -36 -84 -35 -145 0 -71 26 -168 66 -250 63 -127 176 -148
266 -51 107 116 145 254 201 730 17 136 32 250 34 253 3 2 8 -13 12 -34 9 -51
39 -107 71 -132 31 -25 98 -28 147 -7 103 43 179 216 147 335 -17 66 -57 101
-114 101 -58 0 -100 -25 -181 -109 -33 -33 -64 -61 -68 -61 -5 0 -7 30 -5 67
l3 67 -32 7 c-18 3 -46 21 -63 39 -20 21 -36 30 -48 27 -9 -3 -70 -24 -135
-46 -66 -23 -124 -41 -130 -41 -7 0 -18 14 -26 31 -18 41 -66 69 -119 69 -62
0 -103 -21 -142 -74 -19 -26 -54 -71 -77 -101 -24 -29 -43 -57 -43 -61 0 -4
10 -18 22 -31 21 -23 21 -23 2 -45 -23 -26 -227 -178 -232 -173 -14 14 100
614 148 781 42 146 40 173 -13 193 -32 12 -136 14 -153 3z m1303 -693 c17 -32
16 -92 -1 -132 -16 -40 -71 -88 -91 -81 -36 14 -50 168 -17 196 25 22 75 48
87 44 6 -1 16 -13 22 -27z m-751 -56 c-19 -107 -62 -179 -102 -171 -23 4 -38
79 -26 134 7 36 11 39 62 55 75 23 73 24 66 -18z m304 -410 c-38 -299 -89
-506 -138 -564 -23 -28 -25 -29 -43 -13 -26 24 -48 101 -59 212 -16 151 5 209
163 444 75 112 93 133 95 114 2 -14 -6 -100 -18 -193z"/>
</g>
</svg>
