<?xml version="1.0" standalone="no"?>
<!DOCTYPE svg PUBLIC "-//W3C//DTD SVG 20010904//EN"
 "http://www.w3.org/TR/2001/REC-SVG-20010904/DTD/svg10.dtd">
<svg version="1.0" xmlns="http://www.w3.org/2000/svg"
 width="994.000000pt" height="847.000000pt" viewBox="0 0 994.000000 847.000000"
 preserveAspectRatio="xMidYMid meet">
<metadata>
Created by potrace 1.16, written by Peter Selinger 2001-2019
</metadata>
<g transform="translate(0.000000,847.000000) scale(0.100000,-0.100000)"
fill="#000000" stroke="none">
<path d="M4366 8460 c-1157 -81 -2197 -632 -2933 -1555 -774 -970 -1092 -2254
-857 -3464 13 -69 23 -125 21 -126 -1 -1 -76 -41 -167 -89 -217 -116 -422
-238 -413 -246 5 -4 26 -14 48 -22 l40 -15 113 67 c159 95 392 214 401 204 4
-5 18 -49 31 -99 13 -49 49 -166 81 -260 202 -599 497 -1084 963 -1589 l89
-96 -69 -63 c-128 -116 -479 -445 -517 -484 -34 -35 -38 -46 -44 -109 l-6 -69
179 175 c168 164 505 471 524 478 5 2 57 -39 117 -90 629 -543 1331 -860 2158
-974 187 -26 656 -31 865 -9 794 81 1501 373 2145 884 160 127 505 473 638
640 522 656 829 1404 924 2253 23 211 23 665 -1 873 -39 343 -102 628 -206
935 -37 107 -75 216 -86 242 l-18 47 216 210 c545 531 895 985 1147 1490 92
182 214 486 176 437 -8 -11 -15 -16 -15 -12 0 5 -25 -27 -56 -70 -111 -156
-212 -272 -389 -450 -242 -243 -424 -397 -754 -643 -145 -107 -530 -369 -587
-399 -20 -10 -26 -4 -82 86 -140 225 -366 506 -577 717 -668 669 -1531 1084
-2448 1179 -186 20 -489 27 -651 16z m1094 -700 c0 -47 36 -90 78 -91 15 0 36
-4 47 -8 15 -6 9 -9 -27 -13 -64 -7 -98 -44 -98 -107 0 -33 -3 -42 -10 -31 -5
8 -10 30 -10 49 0 45 -37 78 -98 89 l-47 8 48 8 c63 10 97 43 97 96 0 22 5 40
10 40 6 0 10 -18 10 -40z m-1997 -773 c672 -177 1547 -874 2224 -1772 75 -99
140 -184 144 -189 11 -12 183 -45 241 -45 39 -1 53 5 90 35 l43 37 3 -198 c1
-109 1 -200 -2 -202 -2 -2 -26 11 -53 30 -26 19 -68 45 -92 57 l-45 22 19 -28
c225 -340 469 -785 576 -1051 28 -70 34 -80 44 -65 13 19 236 811 293 1037 19
77 40 143 46 147 6 3 76 54 156 112 l145 106 171 0 172 0 45 -122 c25 -68 86
-242 137 -388 206 -595 328 -923 362 -978 11 -19 39 -47 61 -63 l40 -29 -190
0 c-104 0 -312 3 -461 7 -240 5 -269 8 -251 21 11 7 38 36 59 64 48 60 50 89
17 198 l-23 75 -252 3 -251 2 -16 -55 c-32 -110 -16 -217 42 -277 l27 -28
-143 0 c-127 0 -142 -2 -137 -16 20 -51 89 -325 110 -433 57 -294 66 -552 28
-736 -52 -245 -188 -401 -393 -450 -82 -19 -262 -19 -371 0 -173 30 -499 140
-538 181 -14 15 -13 16 5 11 11 -3 69 -24 129 -47 603 -228 987 -115 1098 326
20 77 23 114 22 274 -1 250 -33 434 -131 743 l-46 147 -71 0 -71 1 25 22 c14
12 38 32 54 45 l29 23 -49 122 c-64 160 -242 518 -339 682 -42 72 -126 205
-187 297 l-109 166 -71 12 c-123 21 -263 -10 -308 -68 -29 -36 -26 -93 6 -131
36 -43 90 -72 214 -116 110 -39 219 -88 283 -128 l39 -23 -259 -166 c-142 -91
-263 -168 -270 -172 -14 -8 -171 51 -255 96 -133 71 -227 209 -249 365 -29
205 74 399 262 490 98 47 187 66 320 67 l117 1 -32 44 c-53 75 -292 359 -426
506 -186 205 -513 521 -691 670 -274 228 -493 375 -744 496 -243 117 -429 169
-609 169 -120 0 -182 -13 -274 -57 -282 -134 -378 -517 -266 -1068 78 -386
251 -833 532 -1376 3 -7 -53 -29 -73 -29 -17 0 -182 308 -270 503 -153 342
-250 656 -302 979 -25 151 -24 493 1 608 62 287 207 461 436 525 89 24 328 15
453 -18z m107 -577 c12 -12 42 -24 73 -28 l52 -8 -50 -8 c-66 -11 -92 -37
-101 -107 l-8 -54 -8 52 c-10 68 -38 98 -103 108 l-50 9 47 6 c65 8 96 39 105
104 l7 51 8 -52 c5 -31 16 -61 28 -73z m-1667 -1455 c31 -52 147 -255 258
-452 111 -197 210 -371 220 -388 18 -29 19 -23 19 353 0 432 4 405 -80 509
-28 34 -50 64 -50 67 0 8 100 7 303 -1 l166 -6 -57 -65 -57 -65 -3 -601 c-2
-331 0 -616 3 -633 3 -18 35 -71 70 -117 36 -47 65 -88 65 -91 0 -3 -146 -5
-324 -5 l-325 0 -52 88 c-28 48 -159 276 -291 507 -132 231 -242 422 -245 425
-3 3 -3 -175 -1 -395 4 -394 4 -401 27 -443 12 -24 39 -63 59 -85 71 -79 90
-72 -196 -75 -247 -2 -256 -1 -232 15 55 40 92 78 112 117 21 40 21 51 23 641
1 330 -2 609 -6 620 -4 11 -32 52 -63 90 -31 39 -56 73 -56 78 0 4 148 7 328
7 l328 0 57 -95z m2325 -27 c23 -62 101 -286 175 -498 229 -655 307 -859 344
-901 13 -15 11 -20 -19 -40 l-33 -24 -393 5 -393 5 46 45 c83 81 89 106 50
229 l-26 81 -190 0 c-178 0 -189 -1 -180 -17 11 -20 222 -295 419 -547 l132
-169 -47 -33 c-46 -31 -49 -31 -63 -14 -144 175 -454 593 -535 722 -17 27 -33
48 -37 48 -3 0 -14 -33 -23 -72 -24 -107 -7 -194 51 -251 l27 -27 -259 0
c-142 0 -254 4 -248 8 5 5 39 32 76 62 78 61 112 107 128 170 6 25 59 214 117
420 58 206 125 453 149 549 51 201 51 199 -38 296 -26 29 -48 56 -48 59 0 3
175 6 389 6 l388 0 41 -112z m2100 -857 c34 -70 37 -81 37 -165 0 -83 -3 -97
-32 -153 -76 -146 -264 -275 -472 -325 -74 -17 -107 -20 -241 -15 -149 5 -252
24 -361 65 -23 9 -34 3 -117 -64 l-92 -73 0 74 0 75 144 96 143 95 59 -18 c89
-27 249 -24 334 5 94 32 112 49 117 108 6 59 -13 89 -81 125 -25 13 -46 26
-46 29 0 3 107 76 238 163 l237 158 48 -53 c27 -29 65 -87 85 -127z m1447
-1118 c12 -12 41 -24 70 -28 l50 -8 -49 -8 c-59 -9 -96 -41 -97 -83 -1 -17 -5
-42 -9 -56 -7 -21 -8 -18 -9 19 -2 67 -34 109 -91 117 -68 9 -69 10 -14 17 65
9 94 38 102 104 l6 48 10 -50 c6 -28 20 -60 31 -72z m-3436 -45 c31 -29 104
-89 161 -132 217 -165 270 -221 270 -283 0 -40 -41 -88 -84 -99 -64 -16 -190
66 -306 199 -102 117 -224 287 -214 297 25 24 91 69 103 69 7 1 39 -23 70 -51z
m3075 -877 c12 -13 38 -23 70 -28 l51 -7 -49 -8 c-59 -11 -95 -42 -97 -83 0
-16 -5 -41 -9 -55 -7 -20 -8 -17 -9 22 -1 67 -35 104 -104 114 l-52 8 53 7
c68 9 100 47 103 122 1 26 3 23 13 -20 6 -28 20 -61 30 -72z m-4259 -843 c16
-20 32 -28 75 -34 l55 -7 -54 -9 c-70 -11 -100 -47 -102 -126 -1 -34 -3 -32
-13 18 -15 74 -38 98 -101 107 l-50 7 49 8 c66 12 91 39 102 108 l8 55 6 -50
c3 -27 14 -62 25 -77z"/>
<path d="M7136 4530 c-9 -30 -47 -156 -84 -280 l-68 -225 98 -3 c55 -1 141 -1
192 0 l93 3 -98 260 c-55 143 -103 269 -108 280 -7 17 -11 11 -25 -35z"/>
<path d="M3697 4590 c-17 -46 -165 -545 -163 -547 2 -2 88 -2 193 -1 l189 3
-86 225 c-47 124 -95 250 -107 280 -13 34 -23 49 -26 40z"/>
</g>
</svg>
