<?xml version="1.0" standalone="no"?>
<!DOCTYPE svg PUBLIC "-//W3C//DTD SVG 20010904//EN"
 "http://www.w3.org/TR/2001/REC-SVG-20010904/DTD/svg10.dtd">
<svg version="1.0" xmlns="http://www.w3.org/2000/svg"
 width="900.000000pt" height="900.000000pt" viewBox="0 0 900.000000 900.000000"
 preserveAspectRatio="xMidYMid meet">
<metadata>
Created by potrace 1.16, written by Peter Selinger 2001-2019
</metadata>
<g transform="translate(0.000000,900.000000) scale(0.100000,-0.100000)"
fill="#000000" stroke="none">
<path d="M3870 7979 c-339 -36 -656 -112 -971 -233 -262 -99 -594 -284 -826
-458 -367 -276 -741 -689 -935 -1032 -215 -382 -357 -762 -412 -1109 -49 -300
-60 -922 -21 -1131 9 -48 15 -107 13 -130 l-3 -41 -195 -100 c-108 -55 -229
-123 -270 -152 -94 -66 -175 -146 -167 -167 7 -17 199 -133 236 -143 19 -5 79
22 253 111 223 114 228 116 237 94 5 -13 21 -61 36 -108 37 -117 117 -315 164
-408 47 -93 284 -458 380 -585 38 -51 113 -138 166 -195 61 -66 95 -110 93
-121 -2 -10 -61 -69 -133 -131 -201 -174 -428 -429 -440 -494 -12 -60 79 -256
124 -271 15 -4 46 21 143 117 68 68 176 168 238 223 63 55 167 151 231 212
115 112 115 112 140 96 13 -9 83 -58 154 -109 335 -238 727 -435 1036 -519
239 -66 720 -134 1000 -142 629 -18 1237 137 1823 466 434 244 773 537 1058
916 361 481 591 966 688 1453 44 222 64 435 64 707 1 265 -6 341 -45 530 -40
187 -128 485 -165 556 -25 49 -18 65 49 115 87 67 170 137 252 215 399 377
510 491 652 667 153 191 211 273 260 368 46 89 126 325 143 424 6 36 14 75 17
88 4 18 1 22 -18 22 -16 0 -54 -27 -109 -76 -78 -70 -216 -178 -749 -587 -119
-92 -272 -197 -400 -274 -113 -70 -239 -148 -279 -175 -96 -65 -139 -83 -158
-67 -8 6 -14 17 -14 24 0 27 -288 382 -404 499 -574 577 -1261 916 -2091 1032
-162 23 -232 27 -475 30 -157 1 -323 -2 -370 -7z m1072 -649 c5 0 23 -11 40
-25 16 -14 38 -25 49 -25 11 0 17 -4 14 -10 -3 -5 -17 -10 -30 -10 -19 0 -93
-58 -87 -67 6 -9 1 -23 -8 -23 -5 0 -10 7 -10 15 0 23 -66 85 -92 86 -18 1
-16 3 11 12 40 13 80 50 85 80 7 34 9 34 13 0 2 -18 9 -33 15 -33z m-1797
-585 c141 -29 341 -112 460 -189 28 -18 75 -46 105 -62 30 -16 57 -32 60 -35
3 -3 34 -23 71 -45 103 -62 310 -219 458 -348 286 -249 374 -333 566 -541 65
-72 122 -132 126 -135 13 -10 145 -170 199 -240 80 -104 94 -116 164 -135 l63
-17 52 38 c28 21 51 41 51 44 0 4 17 20 38 37 l37 30 0 -219 c0 -120 -2 -218
-4 -218 -2 0 -27 17 -55 39 -47 36 -88 61 -99 61 -3 0 29 -51 70 -112 41 -62
97 -153 124 -203 71 -129 239 -470 239 -484 0 -6 4 -11 9 -11 5 0 21 39 36 88
15 48 31 96 36 107 4 11 17 52 28 90 11 39 34 115 52 170 17 55 35 114 40 130
59 209 62 217 96 231 17 8 43 24 56 36 13 13 52 41 87 63 130 81 192 124 207
142 6 8 37 16 75 19 34 2 82 6 105 9 l42 4 37 -97 c20 -53 43 -110 50 -127 14
-34 69 -176 109 -280 14 -38 30 -79 35 -90 48 -108 60 -137 60 -145 0 -6 4
-18 9 -28 5 -9 26 -60 46 -112 90 -230 110 -271 143 -298 19 -15 48 -38 65
-52 31 -25 63 -42 100 -54 9 -3 17 -11 17 -17 0 -9 -44 -10 -177 -5 -313 12
-564 7 -703 -14 -30 -4 -59 -5 -63 0 -5 4 12 20 37 36 25 16 45 32 46 36 0 5
16 25 35 45 41 43 43 62 14 132 l-22 51 -231 0 -231 0 -19 -60 c-10 -33 -16
-70 -12 -83 8 -32 113 -137 137 -137 12 0 19 -5 16 -12 -4 -14 -55 -16 -183
-6 -83 7 -101 3 -85 -16 15 -18 71 -240 93 -366 28 -162 26 -152 34 -295 5
-102 3 -147 -10 -208 -24 -113 -89 -236 -156 -293 -14 -12 -41 -36 -60 -53
-56 -49 -165 -90 -261 -97 -153 -12 -402 41 -534 113 -58 31 -125 76 -125 84
0 22 28 16 112 -25 51 -25 104 -47 118 -50 14 -2 41 -11 61 -20 48 -20 213
-46 297 -46 173 0 269 45 385 180 21 25 75 134 83 171 30 123 26 290 -10 499
-24 135 -85 371 -107 413 -9 16 -20 17 -115 12 -103 -6 -133 3 -76 23 33 12
142 99 142 114 0 14 -215 442 -240 478 -9 14 -35 59 -57 100 -48 92 -59 110
-150 235 -96 131 -111 148 -123 140 -6 -4 -17 -2 -24 4 -7 6 -24 11 -37 10
-13 0 -40 2 -61 6 -56 11 -158 -26 -180 -66 -35 -60 -14 -106 60 -130 19 -6
73 -29 120 -51 115 -53 242 -99 253 -92 5 3 9 1 9 -4 0 -6 -7 -12 -15 -16 -8
-3 -46 -25 -83 -48 -37 -24 -75 -47 -84 -53 -47 -27 -254 -170 -260 -179 -4
-6 -11 -6 -20 1 -7 6 -58 28 -113 48 -55 20 -111 42 -125 49 -45 21 -141 120
-166 173 -43 90 -47 211 -8 308 11 29 84 114 110 128 153 86 224 107 372 114
61 3 112 9 112 14 0 4 -22 34 -48 66 -26 32 -55 68 -64 81 -9 13 -43 51 -75
85 -32 34 -117 125 -187 202 -154 168 -284 296 -428 420 -97 84 -155 130 -404
325 -45 36 -126 90 -179 120 -53 30 -108 63 -123 72 -43 27 -173 99 -224 124
-94 47 -278 95 -407 108 -120 11 -300 -50 -387 -131 -232 -217 -215 -678 49
-1298 56 -132 195 -410 262 -525 91 -155 91 -156 55 -175 -16 -8 -35 -15 -42
-15 -7 1 -38 42 -70 93 -57 93 -189 351 -203 397 -4 14 -15 36 -25 50 -25 36
-143 321 -173 415 -77 250 -80 262 -101 410 -34 241 -8 443 76 592 38 67 136
159 218 203 131 69 301 85 495 45z m145 -460 c0 -14 6 -25 13 -25 8 0 20 -11
27 -25 7 -14 21 -25 31 -25 10 0 21 -4 24 -10 3 -5 -2 -10 -12 -10 -10 0 -23
-10 -28 -22 -6 -13 -20 -24 -32 -26 -17 -3 -23 -10 -23 -28 0 -13 -4 -24 -10
-24 -5 0 -10 9 -10 19 0 24 -42 72 -78 88 -21 9 -23 12 -8 12 24 1 86 61 86
84 0 9 5 17 10 17 6 0 10 -11 10 -25z m-2095 -1205 c16 -5 93 -7 323 -9 l212
-1 58 -86 c31 -47 62 -93 67 -102 6 -9 55 -86 111 -171 55 -86 114 -178 132
-206 17 -27 52 -85 79 -127 26 -43 51 -78 55 -78 5 0 8 30 8 68 1 37 3 169 6
295 l6 227 -28 38 c-16 20 -52 61 -82 91 -29 29 -51 55 -49 58 2 2 24 -1 48
-6 69 -16 409 -8 436 9 38 25 40 -1 2 -33 -20 -18 -54 -54 -75 -82 -37 -48
-39 -54 -45 -145 -3 -52 -7 -198 -7 -325 -1 -126 -4 -299 -7 -384 l-6 -153 28
-37 c66 -86 127 -151 143 -151 6 0 10 -5 10 -11 0 -7 -59 -9 -197 -4 -109 4
-247 8 -308 9 -96 1 -110 3 -113 19 -2 9 -8 17 -13 17 -5 0 -9 6 -9 14 0 8 -3
16 -7 18 -5 2 -17 19 -27 38 -11 19 -43 71 -72 115 -66 102 -100 159 -126 214
-11 25 -39 72 -62 106 -22 33 -46 69 -53 80 -73 121 -89 145 -95 145 -4 0 -8
-134 -10 -297 l-3 -298 25 -39 c14 -21 30 -48 37 -60 7 -12 26 -30 43 -41 16
-11 30 -24 30 -29 0 -5 -36 -5 -82 -1 -128 12 -222 13 -280 4 -29 -5 -78 -11
-108 -14 l-55 -5 30 28 c17 15 39 34 50 42 26 20 62 67 79 105 18 39 26 188
31 587 3 201 1 337 -5 353 -10 27 -141 162 -185 191 -14 9 -23 19 -21 23 4 6
62 7 81 1z m2275 -16 c179 -2 335 -4 346 -4 17 0 24 -10 34 -47 7 -27 16 -52
20 -58 4 -5 16 -37 26 -70 10 -33 21 -62 24 -65 6 -6 37 -90 87 -240 104 -307
237 -647 266 -679 12 -13 35 -29 50 -36 l28 -12 -39 -26 c-21 -15 -41 -27 -45
-27 -4 0 -15 -7 -24 -15 -15 -12 -71 -15 -313 -18 -162 -2 -303 -8 -313 -12
-17 -7 -15 -11 16 -44 18 -20 51 -58 73 -86 21 -27 49 -61 62 -74 29 -31 25
-50 -17 -75 l-34 -19 -36 40 c-20 22 -48 55 -63 74 -61 79 -171 217 -206 258
-20 24 -43 54 -51 65 -33 47 -135 156 -146 156 -12 0 -21 -17 -46 -91 -11 -33
-10 -38 25 -90 20 -30 52 -65 71 -78 53 -36 45 -45 -32 -37 -135 15 -197 16
-321 7 -128 -10 -174 -3 -118 19 15 5 45 27 65 48 21 21 49 47 63 58 22 17 68
123 68 155 0 6 6 25 14 42 8 18 33 91 56 162 23 72 57 176 76 233 19 57 34
108 34 113 0 6 10 34 23 62 13 29 36 93 52 144 l28 91 -56 63 c-31 34 -73 74
-92 87 -42 30 -46 47 -7 37 15 -4 173 -9 352 -11z m2124 -706 c41 -62 55 -117
56 -210 0 -170 -136 -309 -345 -353 -101 -22 -322 -19 -473 5 l-124 19 -39
-25 c-22 -14 -58 -41 -80 -61 -22 -20 -42 -34 -44 -31 -2 2 -2 20 1 40 5 25
14 40 33 49 14 8 34 21 44 30 10 9 37 25 60 35 23 10 48 24 55 32 8 7 28 20
45 29 18 9 44 25 59 36 20 14 34 18 55 12 48 -13 116 -16 181 -10 116 12 169
94 108 170 l-24 30 51 30 c27 16 62 37 77 46 29 18 178 123 197 139 7 5 16 10
21 10 5 0 15 7 22 15 19 23 27 19 64 -37z m1316 -932 c0 -17 55 -56 79 -56 31
0 35 -19 6 -30 -32 -12 -74 -59 -75 -82 0 -10 -3 -18 -8 -18 -10 0 -72 69 -72
80 0 6 -9 10 -19 10 -11 0 -23 5 -26 10 -3 6 0 10 7 10 20 0 88 65 88 84 0 9
5 14 10 11 6 -3 10 -12 10 -19z m-2920 -116 c80 -61 198 -140 209 -140 20 0
91 -74 102 -108 17 -49 13 -73 -19 -99 -54 -44 -144 -18 -225 65 -71 73 -227
260 -227 272 0 17 53 59 75 59 11 0 49 -22 85 -49z m2560 -609 c0 -16 64 -71
83 -71 9 0 17 -4 17 -10 0 -5 -7 -10 -15 -10 -22 0 -85 -68 -85 -91 0 -11 -4
-17 -10 -14 -5 3 -10 13 -10 21 0 19 -60 73 -82 74 -24 0 -23 17 1 25 25 8 81
59 81 74 0 6 5 11 10 11 6 0 10 -4 10 -9z m-3630 -658 c0 -18 57 -70 85 -77
33 -9 32 -26 -3 -26 -29 0 -92 -58 -92 -85 0 -8 -4 -15 -10 -15 -5 0 -10 10
-10 23 0 25 -50 77 -74 77 -8 0 -18 5 -21 10 -3 6 0 10 8 10 20 0 87 68 87 89
0 10 3 21 7 24 7 8 23 -12 23 -30z"/>
<path d="M6282 4597 c-19 -61 -43 -143 -54 -182 -11 -38 -26 -88 -34 -109 -8
-22 -11 -42 -9 -45 3 -3 74 -5 158 -5 129 -1 152 1 150 14 -1 8 -20 62 -43
120 -64 159 -107 272 -115 298 -3 12 -9 22 -13 22 -4 0 -22 -51 -40 -113z"/>
<path d="M3380 4583 c-32 -107 -91 -283 -104 -314 -6 -13 3 -17 55 -23 96 -10
239 -7 239 4 0 6 -4 18 -10 28 -15 26 -130 377 -130 396 0 43 -20 6 -50 -91z"/>
<path d="M3386 4018 c40 -42 144 -170 174 -214 l15 -22 25 22 c14 11 40 41 59
64 33 42 33 45 22 85 -27 94 -27 94 -93 101 -34 3 -102 6 -152 6 l-90 0 40
-42z"/>
</g>
</svg>
