<?xml version="1.0" standalone="no"?>
<!DOCTYPE svg PUBLIC "-//W3C//DTD SVG 20010904//EN"
 "http://www.w3.org/TR/2001/REC-SVG-20010904/DTD/svg10.dtd">
<svg version="1.0" xmlns="http://www.w3.org/2000/svg"
 width="994.000000pt" height="847.000000pt" viewBox="0 0 994.000000 847.000000"
 preserveAspectRatio="xMidYMid meet">
<metadata>
Created by potrace 1.16, written by Peter Selinger 2001-2019
</metadata>
<g transform="translate(0.000000,847.000000) scale(0.100000,-0.100000)"
fill="#000000" stroke="none">
<path d="M3730 8458 c0 -5 24 -9 53 -10 l52 -1 -45 -6 c-25 -4 -71 -6 -102 -5
-61 3 -81 -12 -25 -19 19 -2 5 -5 -33 -7 -36 -1 -57 -4 -47 -7 35 -9 4 -23
-51 -23 -39 0 -52 -3 -42 -10 11 -7 4 -11 -28 -16 -23 -4 -42 -10 -42 -15 0
-5 -20 -9 -44 -9 -30 0 -46 -5 -50 -15 -3 -8 -17 -15 -31 -15 -15 0 -33 -7
-41 -15 -9 -8 -26 -15 -39 -15 -13 0 -27 -4 -30 -10 -3 -5 -17 -10 -29 -10
-13 0 -29 -7 -36 -15 -7 -8 -23 -15 -36 -15 -13 0 -24 -4 -24 -9 0 -5 -13 -12
-30 -16 -16 -4 -32 -11 -35 -16 -4 -5 -14 -9 -24 -9 -10 0 -24 -7 -31 -15 -7
-8 -23 -15 -36 -15 -13 0 -24 -4 -24 -8 0 -10 -71 -42 -92 -42 -9 0 -18 -7
-22 -15 -3 -8 -15 -15 -26 -15 -11 0 -20 -4 -20 -10 0 -5 -6 -10 -14 -10 -7 0
-19 -7 -26 -15 -7 -8 -21 -15 -31 -15 -11 0 -19 -4 -19 -10 0 -5 -11 -12 -25
-16 -14 -3 -25 -10 -25 -15 0 -5 -9 -9 -20 -9 -11 0 -23 -7 -26 -15 -4 -8 -10
-15 -15 -15 -5 0 -27 -11 -49 -25 -22 -14 -46 -25 -55 -25 -8 0 -15 -7 -15
-15 0 -8 -7 -15 -16 -15 -8 0 -21 -6 -28 -12 -8 -7 -24 -20 -36 -28 -12 -8
-28 -21 -36 -27 -7 -7 -17 -13 -23 -13 -6 0 -11 -4 -11 -10 0 -5 -6 -10 -14
-10 -8 0 -16 -7 -20 -15 -3 -8 -12 -15 -21 -15 -8 0 -15 -3 -15 -7 0 -5 -18
-19 -40 -33 -22 -13 -40 -28 -40 -32 0 -4 -9 -8 -21 -8 -11 0 -17 -5 -14 -10
3 -6 -2 -13 -12 -17 -10 -3 -22 -13 -26 -20 -5 -7 -12 -11 -18 -8 -5 4 -9 -1
-9 -9 0 -9 -5 -16 -10 -16 -6 0 -23 -12 -37 -27 -14 -16 -29 -27 -34 -25 -5 1
-9 -5 -9 -14 0 -11 -6 -15 -20 -11 -13 3 -19 1 -18 -7 3 -13 -129 -146 -144
-146 -4 0 -8 -5 -8 -10 0 -6 -26 -36 -58 -68 -32 -32 -61 -66 -65 -76 -4 -9
-11 -14 -17 -11 -5 3 -10 1 -10 -5 0 -7 -16 -27 -35 -46 -19 -18 -35 -38 -35
-44 0 -5 -7 -10 -15 -10 -8 0 -15 -4 -15 -10 0 -5 -8 -19 -17 -29 -28 -31 -43
-50 -43 -55 0 -3 -14 -20 -30 -38 -17 -18 -30 -38 -30 -45 0 -7 -6 -13 -14
-13 -8 0 -17 -11 -20 -25 -4 -14 -11 -23 -16 -20 -6 3 -10 -1 -10 -10 0 -8 -7
-18 -15 -21 -8 -3 -17 -15 -20 -25 -4 -11 -18 -32 -31 -46 -24 -26 -43 -56
-63 -100 -6 -13 -15 -23 -21 -23 -5 0 -10 -9 -10 -21 0 -15 -5 -19 -15 -15
-11 4 -15 -2 -15 -20 0 -13 -7 -27 -15 -30 -8 -4 -15 -15 -15 -25 0 -11 -7
-22 -15 -25 -8 -4 -15 -14 -15 -24 0 -10 -6 -23 -14 -29 -8 -7 -17 -23 -20
-37 -4 -14 -11 -22 -16 -19 -6 3 -10 -5 -10 -20 0 -14 -6 -28 -14 -31 -8 -3
-18 -19 -21 -35 -4 -16 -10 -29 -15 -29 -4 0 -11 -12 -14 -26 -4 -15 -14 -33
-21 -41 -8 -8 -15 -23 -15 -34 0 -11 -7 -22 -15 -25 -8 -4 -15 -18 -15 -34 0
-16 -7 -30 -15 -34 -8 -3 -15 -16 -15 -29 0 -14 -7 -30 -15 -37 -8 -7 -15 -23
-15 -35 0 -12 -7 -28 -15 -35 -8 -7 -15 -26 -15 -42 0 -16 -6 -31 -14 -34 -7
-3 -16 -23 -20 -45 -3 -21 -10 -39 -15 -39 -5 0 -12 -20 -15 -45 -4 -25 -11
-45 -17 -45 -5 0 -9 -12 -9 -27 0 -16 -7 -40 -14 -55 -8 -16 -18 -48 -22 -73
-3 -25 -10 -45 -15 -45 -4 0 -11 -21 -15 -47 -3 -27 -11 -53 -16 -60 -5 -6
-12 -37 -15 -67 -3 -31 -12 -61 -19 -67 -9 -7 -14 -33 -14 -73 0 -36 -6 -70
-14 -81 -8 -12 -15 -55 -17 -104 -3 -55 -9 -86 -17 -89 -8 -2 -12 -32 -12 -95
0 -119 -10 -208 -21 -182 -4 11 -8 -151 -8 -360 0 -209 3 -374 8 -367 11 18
21 -68 21 -181 0 -49 4 -86 9 -83 15 10 21 -22 21 -120 0 -56 4 -94 10 -94 6
0 10 -7 10 -16 0 -21 -54 -74 -75 -74 -9 0 -31 -11 -48 -24 -18 -13 -45 -30
-62 -38 -67 -35 -103 -55 -155 -91 -30 -20 -62 -37 -72 -37 -9 0 -18 -3 -20
-7 -7 -16 -67 -43 -82 -37 -13 5 -16 -1 -16 -26 0 -30 2 -32 27 -26 27 6 27 6
9 -9 -11 -8 -23 -15 -26 -15 -4 0 -7 -23 -9 -50 l-2 -51 42 5 c23 3 47 10 53
16 5 5 27 10 48 10 21 0 38 4 38 9 0 12 48 42 71 44 10 1 19 7 19 13 0 6 8 15
17 18 10 3 45 22 78 40 33 19 68 35 77 35 10 1 17 7 15 14 -1 8 11 12 36 12
26 0 36 4 32 13 -3 7 5 12 20 12 17 0 25 -6 26 -17 0 -11 3 -13 6 -5 8 20 23
3 23 -27 0 -16 7 -34 15 -41 7 -6 17 -32 21 -56 3 -24 10 -46 14 -49 5 -3 11
-24 15 -48 4 -23 14 -51 21 -62 8 -11 14 -31 14 -46 0 -15 7 -32 15 -39 8 -7
15 -25 15 -40 0 -15 7 -33 15 -40 8 -7 15 -26 15 -42 0 -16 6 -31 15 -34 9 -4
15 -19 15 -40 0 -22 6 -37 15 -40 8 -4 15 -18 15 -34 0 -16 7 -30 15 -34 8 -3
15 -17 15 -31 0 -14 7 -28 15 -31 8 -4 15 -16 15 -29 0 -12 6 -28 14 -34 8 -7
18 -26 21 -42 4 -16 11 -29 16 -29 5 0 11 -11 15 -25 3 -14 10 -25 14 -25 4 0
11 -12 14 -26 4 -15 14 -33 21 -41 8 -8 15 -23 15 -34 0 -11 4 -17 10 -14 5 3
12 -5 16 -19 3 -13 12 -27 20 -30 8 -3 14 -15 14 -26 0 -11 7 -23 15 -26 8 -4
15 -17 15 -30 0 -15 6 -24 15 -24 8 0 15 -9 15 -20 0 -11 6 -23 14 -26 8 -3
17 -16 20 -30 4 -13 11 -24 16 -24 6 0 10 -9 10 -20 0 -11 6 -20 13 -20 8 0
24 -21 36 -46 13 -25 29 -48 37 -51 8 -3 14 -11 14 -19 0 -8 5 -14 10 -14 6 0
15 -11 20 -25 5 -14 14 -25 20 -25 5 0 10 -9 10 -20 0 -13 5 -18 15 -14 9 4
15 0 15 -10 0 -8 19 -35 43 -59 24 -23 46 -50 50 -60 3 -9 11 -17 17 -17 5 0
10 -9 10 -21 0 -11 4 -17 10 -14 12 7 60 -42 60 -61 0 -8 5 -14 10 -14 12 0
50 -37 50 -49 0 -5 7 -11 15 -15 8 -3 15 -12 15 -21 0 -8 7 -15 15 -15 10 0
15 -10 15 -30 0 -16 -4 -30 -8 -30 -4 0 -50 -41 -101 -90 -51 -50 -97 -90
-102 -90 -5 0 -9 -6 -9 -12 -1 -7 -15 -24 -32 -38 -17 -14 -75 -69 -130 -122
-54 -54 -101 -98 -103 -98 -12 0 -75 -70 -75 -84 0 -9 -7 -19 -15 -22 -20 -8
-22 -166 -2 -182 26 -21 76 -1 132 54 30 30 55 58 55 63 0 4 11 14 25 21 14 7
25 19 25 27 0 7 4 13 10 13 5 0 56 47 114 105 57 58 107 105 110 105 3 0 27
21 54 47 27 27 72 68 101 93 29 25 61 53 71 62 21 18 92 18 98 -1 2 -6 10 -11
18 -11 8 0 14 -7 14 -15 0 -8 7 -15 15 -15 8 0 15 -4 15 -10 0 -5 7 -10 15
-10 8 0 15 -7 15 -15 0 -8 7 -15 15 -15 8 0 15 -7 15 -15 0 -8 7 -15 15 -15 8
0 15 -4 15 -9 0 -5 9 -11 21 -14 12 -3 18 -10 14 -16 -3 -6 1 -11 11 -11 9 0
27 -10 38 -22 26 -27 54 -46 78 -54 9 -3 19 -12 22 -20 3 -8 12 -14 21 -14 8
0 15 -4 15 -10 0 -5 7 -10 15 -10 8 0 15 -7 15 -15 0 -8 9 -15 20 -15 11 0 20
-4 20 -10 0 -5 7 -10 15 -10 9 0 18 -7 21 -15 4 -8 15 -15 25 -15 10 0 19 -7
19 -15 0 -8 9 -15 20 -15 11 0 20 -4 20 -9 0 -5 11 -12 25 -15 14 -4 25 -11
25 -16 0 -6 9 -10 20 -10 11 0 20 -4 20 -9 0 -5 11 -12 25 -15 14 -4 25 -11
25 -16 0 -6 9 -10 20 -10 11 0 23 -7 26 -15 4 -8 12 -15 19 -15 14 0 78 -30
85 -41 3 -3 14 -9 25 -11 11 -2 19 -10 17 -16 -1 -7 10 -12 28 -12 16 0 30 -4
30 -10 0 -5 9 -10 19 -10 11 0 26 -7 35 -15 8 -8 23 -15 34 -15 11 0 25 -7 32
-15 7 -8 21 -15 31 -15 10 0 20 -4 24 -9 3 -5 19 -12 35 -16 17 -4 30 -11 30
-16 0 -5 13 -9 29 -9 16 0 34 -7 41 -15 7 -8 25 -15 41 -15 16 0 29 -4 29 -10
0 -5 11 -10 24 -10 33 0 57 -10 50 -21 -3 -5 13 -9 34 -9 22 0 44 -6 50 -13 6
-7 26 -14 44 -15 18 -2 37 -7 42 -12 6 -6 25 -10 42 -10 18 0 39 -7 48 -15 8
-8 30 -15 49 -15 19 0 48 -7 63 -15 16 -8 48 -15 72 -15 23 0 42 -4 42 -10 0
-5 24 -10 53 -11 61 -1 114 -17 60 -18 -18 -1 -33 -5 -33 -9 0 -5 263 -10 584
-11 562 -2 872 5 831 19 -16 5 -13 8 14 13 19 4 53 7 77 7 24 0 44 5 44 10 0
6 19 10 43 10 24 0 52 7 63 15 10 8 38 15 62 15 24 0 41 4 38 9 -7 10 27 21
67 21 15 0 27 5 27 10 0 6 12 10 28 10 15 0 40 7 56 15 15 8 39 15 53 15 13 0
31 7 39 15 9 8 29 15 45 15 16 0 29 5 29 10 0 6 10 10 23 10 13 0 32 7 43 15
10 8 29 15 42 15 13 0 30 7 38 15 9 8 24 15 35 15 10 0 19 5 19 10 0 6 11 10
24 10 13 0 29 7 36 15 7 8 23 15 35 15 13 0 25 3 27 8 2 4 21 15 43 26 22 10
47 22 55 27 8 5 21 11 28 14 32 13 39 16 67 34 17 11 38 20 48 20 10 1 20 8
23 16 4 8 15 15 25 15 10 0 19 4 19 9 0 5 11 12 25 15 14 4 25 11 25 16 0 6 9
10 20 10 11 0 20 4 20 9 0 5 10 13 22 17 12 3 28 12 35 18 32 29 43 36 53 36
5 0 10 4 10 9 0 5 10 13 22 17 12 3 28 12 35 18 30 27 43 36 48 36 4 0 13 6
20 12 26 24 68 52 93 64 13 7 49 35 83 66 10 10 21 18 24 18 3 0 16 11 29 25
13 14 26 25 29 25 4 0 22 15 40 33 58 54 85 77 91 77 3 0 24 18 46 40 22 22
45 40 50 40 6 0 10 4 10 8 0 4 50 59 110 121 61 63 110 115 110 117 0 2 20 24
45 48 25 25 45 49 45 52 0 4 16 22 35 41 19 19 35 38 35 43 0 6 7 10 15 10 8
0 15 9 15 20 0 11 5 20 10 20 6 0 15 11 20 25 5 14 14 25 20 25 5 0 10 6 10
14 0 8 7 16 15 20 8 3 15 11 15 18 0 8 14 28 30 46 17 18 30 40 30 48 0 8 7
14 15 14 8 0 15 9 15 20 0 11 6 23 14 26 8 3 17 16 20 30 4 13 11 24 16 24 6
0 10 6 10 13 0 13 21 44 53 78 9 11 17 26 17 34 0 8 4 15 10 15 5 0 12 11 16
25 3 14 10 25 14 25 5 0 14 16 20 35 6 19 16 35 21 35 5 0 9 8 9 19 0 10 7 24
15 31 8 7 15 20 15 30 0 10 7 23 15 30 8 7 15 23 15 36 0 15 6 24 15 24 9 0
15 9 15 24 0 14 7 31 15 40 8 8 15 24 15 36 0 11 6 23 14 26 8 3 17 21 20 40
4 19 11 34 16 34 5 0 12 17 16 38 4 20 13 46 20 57 8 11 14 28 14 38 0 10 7
25 15 33 8 9 15 28 15 43 0 16 7 34 15 41 8 7 15 25 15 40 0 15 7 33 15 40 9
8 15 29 15 56 0 26 5 46 14 51 7 4 16 28 19 52 3 24 10 47 15 50 5 3 12 28 14
55 3 27 10 51 15 55 6 3 13 33 17 65 4 33 10 64 15 70 5 6 11 45 15 86 4 41
10 77 15 80 5 3 12 46 16 95 4 50 12 98 17 108 27 52 24 1060 -3 1093 -5 6
-12 56 -16 110 -3 55 -10 102 -16 105 -5 4 -12 40 -15 80 -2 41 -11 83 -18 94
-8 11 -14 45 -14 78 0 32 -4 56 -9 53 -13 -8 -21 18 -21 67 0 23 -7 51 -15 61
-8 11 -15 37 -15 58 0 25 -5 41 -15 44 -10 4 -15 20 -15 49 0 29 -5 45 -15 49
-9 3 -15 18 -15 35 0 16 -7 36 -15 45 -8 8 -15 25 -15 38 0 13 -7 36 -15 52
-20 39 -20 126 0 126 8 0 15 6 15 13 0 14 97 117 111 117 5 0 9 7 9 15 0 8 7
15 15 15 8 0 15 7 15 15 0 8 4 15 9 15 16 0 390 384 399 410 2 6 10 10 18 10
8 0 14 4 14 9 0 8 34 51 73 92 9 11 17 24 17 29 0 6 7 10 15 10 8 0 15 7 15
15 0 9 7 18 15 21 8 4 15 11 15 18 0 6 8 19 18 27 9 9 24 26 32 39 8 12 30 39
47 59 18 20 33 42 33 49 0 6 6 12 14 12 7 0 16 9 19 21 3 12 10 18 16 14 7 -4
11 4 11 19 0 16 6 26 15 26 8 0 15 9 15 20 0 11 7 23 15 26 8 4 15 12 15 20 0
8 7 14 15 14 8 0 15 7 15 15 0 15 30 63 58 93 6 7 12 19 12 25 0 7 14 27 30
45 16 18 30 39 30 47 0 7 7 15 15 19 8 3 15 14 15 25 0 10 7 21 15 25 8 3 15
15 15 26 0 11 6 23 14 26 8 3 16 19 20 35 3 17 10 28 16 24 5 -3 10 3 10 14 0
28 11 52 21 45 5 -3 9 6 9 20 0 13 6 31 13 38 8 7 17 26 21 41 3 15 11 27 16
27 6 0 10 6 10 14 0 8 7 21 15 30 8 8 19 26 25 40 5 15 15 25 22 24 9 -2 14
17 16 65 4 100 -11 88 -86 -68 -136 -282 -278 -520 -478 -800 -39 -55 -202
-260 -249 -315 -160 -184 -406 -443 -413 -435 -3 3 44 56 105 117 508 519 878
1071 1078 1606 38 104 42 121 44 222 2 94 0 110 -13 110 -11 0 -16 -9 -16 -29
0 -16 -7 -37 -16 -45 -10 -10 -13 -24 -9 -37 5 -15 1 -25 -14 -36 -12 -8 -21
-20 -19 -26 3 -16 -37 -79 -45 -70 -4 3 -7 -3 -7 -14 0 -12 -7 -23 -15 -27 -8
-3 -15 -15 -15 -26 0 -11 -5 -20 -10 -20 -6 0 -16 -11 -22 -25 -7 -16 -17 -24
-25 -20 -9 3 -14 -1 -12 -13 3 -32 -1 -42 -16 -42 -8 0 -15 -6 -15 -14 0 -15
-26 -46 -117 -141 -35 -36 -63 -69 -63 -75 0 -5 -7 -10 -15 -10 -8 0 -15 -7
-15 -15 0 -8 -4 -15 -9 -15 -5 0 -50 -40 -99 -90 -49 -49 -94 -90 -101 -90 -6
0 -11 -7 -11 -15 0 -8 -5 -15 -11 -15 -5 0 -23 -14 -39 -31 -15 -17 -33 -28
-39 -25 -6 4 -11 0 -11 -8 0 -9 -7 -16 -15 -16 -8 0 -15 -7 -15 -15 0 -8 -7
-15 -15 -15 -8 0 -15 -7 -15 -16 0 -10 -6 -14 -15 -10 -9 3 -15 0 -15 -9 0 -8
-7 -15 -15 -15 -8 0 -15 -7 -15 -15 0 -8 -6 -15 -14 -15 -8 0 -17 -7 -20 -16
-3 -8 -10 -12 -16 -9 -5 3 -10 -1 -10 -9 0 -9 -5 -16 -10 -16 -6 0 -21 -10
-33 -23 -12 -13 -30 -26 -39 -30 -10 -3 -18 -11 -18 -17 0 -5 -6 -10 -14 -10
-8 0 -16 -3 -18 -8 -4 -9 -84 -72 -92 -72 -3 0 -14 -8 -24 -17 -32 -31 -72
-63 -78 -63 -3 0 -12 -6 -19 -12 -33 -30 -45 -38 -55 -38 -5 0 -10 -4 -10 -9
0 -5 -9 -13 -20 -16 -11 -4 -32 -17 -47 -31 -14 -13 -32 -24 -38 -24 -7 0 -16
-7 -19 -16 -3 -8 -10 -13 -15 -9 -6 3 -13 0 -18 -8 -11 -18 -59 -47 -78 -47
-9 0 -14 -4 -11 -8 3 -4 -15 -19 -40 -32 -24 -14 -44 -28 -44 -32 0 -5 -9 -8
-20 -8 -11 0 -20 -4 -20 -10 0 -5 -7 -10 -15 -10 -7 0 -19 -8 -24 -17 -10 -17
-10 -17 -11 0 0 10 -4 15 -10 12 -5 -3 -15 5 -22 19 -6 14 -15 26 -20 26 -5 0
-13 10 -19 23 -20 44 -37 68 -45 65 -5 -2 -10 6 -12 17 -3 11 -10 24 -18 28
-8 4 -14 17 -14 27 0 13 -5 18 -15 14 -10 -4 -15 0 -15 10 0 9 -7 19 -15 22
-8 4 -15 15 -15 25 0 10 -6 19 -14 19 -8 0 -17 9 -21 19 -3 11 -12 22 -20 25
-8 3 -15 10 -15 16 0 12 -15 32 -42 58 -10 9 -18 22 -18 30 0 7 -4 10 -10 7
-5 -3 -12 6 -16 20 -3 14 -12 25 -20 25 -8 0 -14 7 -14 15 0 8 -7 15 -15 15
-8 0 -15 4 -15 10 0 5 -20 31 -45 57 -24 26 -45 53 -45 60 0 7 -7 10 -15 7 -9
-4 -15 0 -15 10 0 9 -4 16 -8 16 -5 0 -21 18 -38 40 -16 22 -33 40 -37 40 -13
0 -107 96 -107 108 0 6 -7 9 -15 6 -9 -4 -15 0 -15 10 0 9 -4 16 -10 16 -5 0
-22 12 -38 28 -16 15 -48 43 -71 62 -24 19 -56 47 -72 63 -17 15 -34 27 -40
27 -5 0 -12 7 -15 15 -4 8 -12 15 -20 15 -8 0 -14 5 -14 10 0 6 -7 10 -15 10
-8 0 -15 7 -15 15 0 8 -7 15 -15 15 -8 0 -15 7 -15 16 0 9 -5 12 -12 8 -6 -4
-16 -1 -22 7 -14 17 -45 37 -68 45 -10 4 -18 10 -18 14 0 4 -9 10 -21 13 -12
3 -18 10 -14 16 3 6 -2 11 -13 11 -11 0 -25 7 -32 15 -7 8 -19 15 -26 15 -8 0
-14 5 -14 10 0 6 -9 10 -20 10 -11 0 -20 7 -20 15 0 8 -9 15 -20 15 -11 0 -23
7 -26 15 -4 8 -15 15 -25 15 -10 0 -19 5 -19 10 0 6 -9 10 -20 10 -11 0 -23 7
-26 15 -4 8 -15 15 -25 15 -10 0 -19 6 -19 13 0 8 -6 14 -14 14 -24 0 -87 34
-81 44 4 5 -9 9 -28 9 -22 0 -37 6 -41 15 -3 8 -15 15 -26 15 -11 0 -20 5 -20
10 0 6 -11 10 -24 10 -13 0 -29 7 -36 15 -7 8 -21 15 -31 15 -10 0 -20 4 -24
9 -3 5 -19 12 -35 16 -17 4 -30 11 -30 16 0 5 -11 9 -24 9 -14 0 -31 7 -40 15
-8 8 -26 15 -40 15 -14 0 -27 4 -30 9 -3 5 -22 12 -41 15 -20 4 -33 11 -30 17
4 5 -9 9 -27 9 -19 0 -43 7 -54 15 -10 8 -31 15 -46 15 -16 0 -28 4 -28 9 0 4
-21 11 -46 14 -26 2 -49 10 -53 15 -3 6 -29 12 -56 14 -33 2 -49 7 -47 16 1 8
-14 13 -50 14 -36 1 -43 2 -20 5 17 2 32 8 32 14 0 5 -33 7 -77 4 -43 -3 -91
-1 -108 4 l-30 9 29 1 c16 1 27 3 24 6 -3 3 -74 9 -158 12 -168 7 -196 -5 -64
-26 118 -20 80 -24 -57 -7 -761 94 -1525 -26 -2195 -344 -70 -33 -129 -58
-131 -56 -6 5 164 87 297 143 119 51 329 124 440 154 121 33 302 77 345 84 61
11 149 36 160 47 6 5 -49 8 -148 6 -86 -2 -157 -6 -157 -10z m1648 -53 c42 -9
95 -20 117 -25 22 -5 79 -19 128 -30 195 -46 530 -171 750 -281 382 -191 751
-454 1039 -740 142 -141 142 -141 18 -23 -600 568 -1272 925 -2035 1083 -77
16 -130 30 -117 30 13 1 58 -6 100 -14z m4548 -357 c4 -7 4 -10 0 -6 -5 4 -30
-26 -57 -65 -291 -430 -875 -947 -1612 -1427 -132 -87 -153 -97 -161 -82 -5 9
-50 78 -99 152 -49 74 -82 128 -74 120 21 -20 99 -132 137 -196 34 -58 51 -69
83 -53 49 26 411 272 542 369 335 248 555 438 833 720 111 113 187 205 307
375 41 59 80 105 89 105 3 0 8 -6 12 -12z m-7156 -29 c-8 -5 -71 -41 -140 -80
-567 -322 -1078 -807 -1442 -1369 -359 -555 -603 -1244 -664 -1875 -3 -33 -9
-94 -14 -135 l-7 -75 -2 84 c-2 124 50 461 106 691 27 111 103 368 122 415 5
11 32 81 61 155 88 226 272 574 414 785 47 71 200 277 264 355 147 183 414
449 607 606 164 133 461 329 650 428 49 25 75 34 45 15z m2690 -259 c0 -47 36
-90 78 -91 15 0 36 -4 47 -8 15 -6 9 -9 -27 -13 -64 -7 -98 -44 -98 -107 0
-33 -3 -42 -10 -31 -5 8 -10 30 -10 49 0 45 -37 78 -98 89 l-47 8 48 8 c63 10
97 43 97 96 0 22 5 40 10 40 6 0 10 -18 10 -40z m-1997 -773 c672 -177 1547
-874 2224 -1772 75 -99 140 -184 144 -189 11 -12 183 -45 241 -45 39 -1 53 5
90 35 l43 37 3 -198 c1 -109 1 -200 -2 -202 -2 -2 -26 11 -53 30 -26 19 -68
45 -92 57 l-45 22 19 -28 c225 -340 469 -785 576 -1051 28 -70 34 -80 44 -65
13 19 236 811 293 1037 19 77 40 143 46 147 6 3 76 54 156 112 l145 106 171 0
172 0 45 -122 c25 -68 86 -242 137 -388 206 -595 328 -923 362 -978 11 -19 39
-47 61 -63 l40 -29 -190 0 c-104 0 -312 3 -461 7 -240 5 -269 8 -251 21 11 7
38 36 59 64 48 60 50 89 17 198 l-23 75 -252 3 -251 2 -16 -55 c-32 -110 -16
-217 42 -277 l27 -28 -143 0 c-127 0 -142 -2 -137 -16 20 -51 89 -325 110
-433 57 -294 66 -552 28 -736 -52 -245 -188 -401 -393 -450 -82 -19 -262 -19
-371 0 -173 30 -499 140 -538 181 -14 15 -13 16 5 11 11 -3 69 -24 129 -47
603 -228 987 -115 1098 326 20 77 23 114 22 274 -1 250 -33 434 -131 743 l-46
147 -71 0 -71 1 25 22 c14 12 38 32 54 45 l29 23 -49 122 c-64 160 -242 518
-339 682 -42 72 -126 205 -187 297 l-109 166 -71 12 c-123 21 -263 -10 -308
-68 -29 -36 -26 -93 6 -131 36 -43 90 -72 214 -116 110 -39 219 -88 283 -128
l39 -23 -259 -166 c-142 -91 -263 -168 -270 -172 -14 -8 -171 51 -255 96 -133
71 -227 209 -249 365 -29 205 74 399 262 490 98 47 187 66 320 67 l117 1 -32
44 c-53 75 -292 359 -426 506 -186 205 -513 521 -691 670 -274 228 -493 375
-744 496 -243 117 -429 169 -609 169 -120 0 -182 -13 -274 -57 -282 -134 -378
-517 -266 -1068 78 -386 251 -833 532 -1376 3 -7 -53 -29 -73 -29 -17 0 -182
308 -270 503 -153 342 -250 656 -302 979 -25 151 -24 493 1 608 62 287 207
461 436 525 89 24 328 15 453 -18z m107 -577 c12 -12 42 -24 73 -28 l52 -8
-50 -8 c-66 -11 -92 -37 -101 -107 l-8 -54 -8 52 c-10 68 -38 98 -103 108
l-50 9 47 6 c65 8 96 39 105 104 l7 51 8 -52 c5 -31 16 -61 28 -73z m-1667
-1455 c31 -52 147 -255 258 -452 111 -197 210 -371 220 -388 18 -29 19 -23 19
353 0 432 4 405 -80 509 -28 34 -50 64 -50 67 0 8 100 7 303 -1 l166 -6 -57
-65 -57 -65 -3 -601 c-2 -331 0 -616 3 -633 3 -18 35 -71 70 -117 36 -47 65
-88 65 -91 0 -3 -146 -5 -324 -5 l-325 0 -52 88 c-28 48 -159 276 -291 507
-132 231 -242 422 -245 425 -3 3 -3 -175 -1 -395 4 -394 4 -401 27 -443 12
-24 39 -63 59 -85 71 -79 90 -72 -196 -75 -247 -2 -256 -1 -232 15 55 40 92
78 112 117 21 40 21 51 23 641 1 330 -2 609 -6 620 -4 11 -32 52 -63 90 -31
39 -56 73 -56 78 0 4 148 7 328 7 l328 0 57 -95z m2325 -27 c23 -62 101 -286
175 -498 229 -655 307 -859 344 -901 13 -15 11 -20 -19 -40 l-33 -24 -393 5
-393 5 46 45 c83 81 89 106 50 229 l-26 81 -190 0 c-178 0 -189 -1 -180 -17
11 -20 222 -295 419 -547 l132 -169 -47 -33 c-46 -31 -49 -31 -63 -14 -144
175 -454 593 -535 722 -17 27 -33 48 -37 48 -3 0 -14 -33 -23 -72 -24 -107 -7
-194 51 -251 l27 -27 -259 0 c-142 0 -254 4 -248 8 5 5 39 32 76 62 78 61 112
107 128 170 6 25 59 214 117 420 58 206 125 453 149 549 51 201 51 199 -38
296 -26 29 -48 56 -48 59 0 3 175 6 389 6 l388 0 41 -112z m2100 -857 c34 -70
37 -81 37 -165 0 -83 -3 -97 -32 -153 -76 -146 -264 -275 -472 -325 -74 -17
-107 -20 -241 -15 -149 5 -252 24 -361 65 -23 9 -34 3 -117 -64 l-92 -73 0 74
0 75 144 96 143 95 59 -18 c89 -27 249 -24 334 5 94 32 112 49 117 108 6 59
-13 89 -81 125 -25 13 -46 26 -46 29 0 3 107 76 238 163 l237 158 48 -53 c27
-29 65 -87 85 -127z m1447 -1118 c12 -12 41 -24 70 -28 l50 -8 -49 -8 c-59 -9
-96 -41 -97 -83 -1 -17 -5 -42 -9 -56 -7 -21 -8 -18 -9 19 -2 67 -34 109 -91
117 -68 9 -69 10 -14 17 65 9 94 38 102 104 l6 48 10 -50 c6 -28 20 -60 31
-72z m-3436 -45 c31 -29 104 -89 161 -132 217 -165 270 -221 270 -283 0 -40
-41 -88 -84 -99 -64 -16 -190 66 -306 199 -102 117 -224 287 -214 297 25 24
91 69 103 69 7 1 39 -23 70 -51z m3075 -877 c12 -13 38 -23 70 -28 l51 -7 -49
-8 c-59 -11 -95 -42 -97 -83 0 -16 -5 -41 -9 -55 -7 -20 -8 -17 -9 22 -1 67
-35 104 -104 114 l-52 8 53 7 c68 9 100 47 103 122 1 26 3 23 13 -20 6 -28 20
-61 30 -72z m-4259 -843 c16 -20 32 -28 75 -34 l55 -7 -54 -9 c-70 -11 -100
-47 -102 -126 -1 -34 -3 -32 -13 18 -15 74 -38 98 -101 107 l-50 7 49 8 c66
12 91 39 102 108 l8 55 6 -50 c3 -27 14 -62 25 -77z"/>
<path d="M7136 4530 c-9 -30 -47 -156 -84 -280 l-68 -225 98 -3 c55 -1 141 -1
192 0 l93 3 -98 260 c-55 143 -103 269 -108 280 -7 17 -11 11 -25 -35z"/>
<path d="M3697 4590 c-17 -46 -165 -545 -163 -547 2 -2 88 -2 193 -1 l189 3
-86 225 c-47 124 -95 250 -107 280 -13 34 -23 49 -26 40z"/>
</g>
</svg>
